<svg xmlns="http://www.w3.org/2000/svg" viewBox="0 0 240 262" width="240" height="262"><defs><filter id="sh" x="-10%" y="-10%" width="120%" height="130%"><feDropShadow dx="0" dy="3" stdDeviation="4" flood-color="#000" flood-opacity=".16"/></filter></defs><g filter="url(#sh)"><circle cx="120" cy="116" r="106" fill="#fff"/></g><circle cx="120" cy="116" r="98" fill="#ececef"/><circle cx="120" cy="116" r="98" fill="none" stroke="#1d2026" stroke-opacity=".22" stroke-width="1.5"/><g transform="translate(34 24) scale(1.43)"><g transform="rotate(5 60 70)"><g><path d="M24 47c0-22 16-37 36-39 23-2 42 12 45 35 4 28-10 56-38 64-25 7-46-6-49-31-1-10 1-20 6-29Z" fill="#1d2026" transform="scale(1)"/><path d="M29 38C15 34 11 21 18 11c9 8 20 10 32 8-8 5-15 11-21 19Z" fill="#1d2026" transform="scale(1)"/><ellipse cx="42" cy="30" rx="16" ry="9" fill="#fff" opacity=".13" transform="rotate(-25 42 30)"/></g><g transform="translate(0 0)"><ellipse cx="42" cy="56" rx="9.5" ry="12" fill="#fff"/><circle cx="43" cy="59" r="4.6" fill="#1d2026"/><path d="M69 55 Q78 64 87 55" fill="none" stroke="#ffffff" stroke-width="5" stroke-linecap="round"/><path d="M34 40 Q42 32 50 40" fill="none" stroke="#ffffff" stroke-width="3.6" stroke-linecap="round"/><path d="M70 40 Q78 32 86 40" fill="none" stroke="#ffffff" stroke-width="3.6" stroke-linecap="round"/><path d="M47 80 Q60 92 73 80" fill="none" stroke="#ffffff" stroke-width="4.6" stroke-linecap="round" stroke-linejoin="round"/></g></g><g transform="translate(0 0)"><g transform="translate(98 82) rotate(12)"><rect x="-9" y="-5" width="18" height="16" rx="6" fill="#1d2026" stroke="#ffffff" stroke-opacity=".9" stroke-width="2.4" stroke-linejoin="round"/><rect x="-5" y="-17" width="8" height="15" rx="4" fill="#1d2026" stroke="#ffffff" stroke-opacity=".9" stroke-width="2.4" stroke-linejoin="round"/><path d="M-9 1h18M-9 6h18" stroke="#fff" stroke-opacity=".25" stroke-width="1.4"/></g><path transform="translate(18 22) scale(0.9)" d="M0 -8C1 -3 3 -1 8 0 3 1 1 3 0 8-1 3-3 1-8 0-3-1-1-3 0-8Z" fill="#f4b73f"/></g></g><rect x="88.6" y="212" width="62.8" height="32" rx="16" fill="#fff"/><rect x="88.6" y="212" width="62.8" height="32" rx="16" fill="none" stroke="#1d2026" stroke-width="2.4"/><text x="120" y="233.5" font-family="Inter,Segoe UI,system-ui,sans-serif" font-weight="800" font-size="16" fill="#20232a" text-anchor="middle">Oke!</text></svg>