<svg xmlns="http://www.w3.org/2000/svg" viewBox="0 0 240 262" width="240" height="262"><defs><filter id="sh" x="-10%" y="-10%" width="120%" height="130%"><feDropShadow dx="0" dy="3" stdDeviation="4" flood-color="#000" flood-opacity=".16"/></filter></defs><g filter="url(#sh)"><circle cx="120" cy="116" r="106" fill="#fff"/></g><circle cx="120" cy="116" r="98" fill="#f8ecdc"/><circle cx="120" cy="116" r="98" fill="none" stroke="#D18A3C" stroke-opacity=".22" stroke-width="1.5"/><g transform="translate(34 24) scale(1.43)"><g transform="rotate(-8 60 70)"><g><path d="M35 57c-4-27 11-47 36-52 25-5 51 8 58 31 3 10 1 20-2 29 11 14 13 31 6 48-9 22-30 36-55 36-26 0-48-15-55-37-5-16-1-34 12-55Z" fill="#D18A3C" transform="scale(0.75)"/><path d="M39 36C25 23 27 8 40 2c8 11 19 16 33 17-10 5-20 10-34 17Z" fill="#D18A3C" transform="scale(0.75)"/><path d="M104 20c8-15 24-20 35-12-4 11-2 20 4 29-12-5-24-10-39-17Z" fill="#D18A3C" transform="scale(0.75)"/><ellipse cx="42" cy="30" rx="16" ry="9" fill="#fff" opacity=".13" transform="rotate(-25 42 30)"/></g><g transform="translate(0 -6)"><ellipse cx="42" cy="56" rx="9.5" ry="12" fill="#fff"/><circle cx="43" cy="60" r="4.2" fill="#202127"/><path d="M30 39 L54 39 L54 59 L30 48 Z" fill="#D18A3C"/><ellipse cx="78" cy="56" rx="9.5" ry="12" fill="#fff"/><circle cx="77" cy="60" r="4.2" fill="#202127"/><path d="M90 39 L66 39 L66 59 L90 48 Z" fill="#D18A3C"/><path d="M32 35 L52 43" fill="none" stroke="#202127" stroke-width="3.6" stroke-linecap="round"/><path d="M88 35 L68 43" fill="none" stroke="#202127" stroke-width="3.6" stroke-linecap="round"/><path d="M45 77 Q60 83 75 77 Q73 96 60 96 Q47 96 45 77 Z" fill="#3a1d27"/><ellipse cx="60" cy="92" rx="6.5" ry="3.6" fill="#ef8d9b"/><ellipse cx="31" cy="72" rx="7" ry="4.2" fill="#ff9aa8" opacity="0.35"/><ellipse cx="89" cy="72" rx="7" ry="4.2" fill="#ff9aa8" opacity="0.35"/></g></g><g transform="translate(0 0)"><g transform="translate(100 24) rotate(40)"><path d="M0 -17c6 4 8 12 7 22h-14c-1-10 1-18 7-22Z" fill="#fff" stroke="#202127" stroke-opacity=".35" stroke-width="1.6"/><circle cy="-4" r="3.4" fill="#7db9ea"/><path d="M-7 5l-6 6 6-1ZM7 5l6 6-6-1Z" fill="#e5484d"/><path d="M0 8c3 4 3 8 0 12-3-4-3-8 0-12Z" fill="#ff8a3d"/></g><path d="M8 46 h10" transform="rotate(180 8 52)" stroke="#d9a96d" stroke-width="2.6" stroke-linecap="round" opacity="0.55"/><path d="M8 52 h10" transform="rotate(180 8 52)" stroke="#d9a96d" stroke-width="2.6" stroke-linecap="round" opacity="0.55"/><path d="M8 58 h10" transform="rotate(180 8 52)" stroke="#d9a96d" stroke-width="2.6" stroke-linecap="round" opacity="0.55"/><path transform="translate(18 84) scale(0.7)" d="M0 -16C3 -9 11 -6 10 3c0 7-5 11-10 11S-10 10 -10 3c0-4 2-7 4-9 0 3 2 5 4 5 -1-6 0 -10 2-15Z" fill="#ff8a3d"/><path transform="translate(18 84) scale(0.7)" d="M0 -3C2 0 5 2 5 6c0 3-2 5-5 5s-5-2-5-5c0-2 1-3 2-4 0 2 1 3 2 3 0-3 0-5 1-7Z" fill="#ffd24a"/><g transform="translate(30 96) rotate(10)"><rect x="-10" y="-9" width="20" height="18" rx="7" fill="#D18A3C" stroke="#ffffff" stroke-opacity=".9" stroke-width="2.4" stroke-linejoin="round"/><path d="M-4 -8v6M2 -8v6" stroke="#fff" stroke-opacity=".3" stroke-width="1.4"/></g></g></g><rect x="70.2" y="212" width="99.6" height="32" rx="16" fill="#fff"/><rect x="70.2" y="212" width="99.6" height="32" rx="16" fill="none" stroke="#D18A3C" stroke-width="2.4"/><text x="120" y="233.5" font-family="Inter,Segoe UI,system-ui,sans-serif" font-weight="800" font-size="16" fill="#20232a" text-anchor="middle">Gaskeun!</text></svg>