<svg xmlns="http://www.w3.org/2000/svg" viewBox="0 0 240 262" width="240" height="262"><defs><filter id="sh" x="-10%" y="-10%" width="120%" height="130%"><feDropShadow dx="0" dy="3" stdDeviation="4" flood-color="#000" flood-opacity=".16"/></filter></defs><g filter="url(#sh)"><circle cx="120" cy="116" r="106" fill="#fff"/></g><circle cx="120" cy="116" r="98" fill="#f8ecdc"/><circle cx="120" cy="116" r="98" fill="none" stroke="#D18A3C" stroke-opacity=".22" stroke-width="1.5"/><g transform="translate(34 24) scale(1.43)"><g transform="rotate(5 60 70)"><g><path d="M35 57c-4-27 11-47 36-52 25-5 51 8 58 31 3 10 1 20-2 29 11 14 13 31 6 48-9 22-30 36-55 36-26 0-48-15-55-37-5-16-1-34 12-55Z" fill="#D18A3C" transform="scale(0.75)"/><path d="M39 36C25 23 27 8 40 2c8 11 19 16 33 17-10 5-20 10-34 17Z" fill="#D18A3C" transform="scale(0.75)"/><path d="M104 20c8-15 24-20 35-12-4 11-2 20 4 29-12-5-24-10-39-17Z" fill="#D18A3C" transform="scale(0.75)"/><ellipse cx="42" cy="30" rx="16" ry="9" fill="#fff" opacity=".13" transform="rotate(-25 42 30)"/></g><g transform="translate(0 -6)"><ellipse cx="42" cy="56" rx="9.5" ry="12" fill="#fff"/><circle cx="43" cy="59" r="4.6" fill="#202127"/><ellipse cx="78" cy="56" rx="9.5" ry="12" fill="#fff"/><circle cx="77" cy="59" r="4.6" fill="#202127"/><path d="M33 39 H51" fill="none" stroke="#202127" stroke-width="3.6" stroke-linecap="round"/><path d="M69 39 H87" fill="none" stroke="#202127" stroke-width="3.6" stroke-linecap="round"/><path d="M50 84 Q64 91 73 76" fill="none" stroke="#202127" stroke-width="4.6" stroke-linecap="round" stroke-linejoin="round"/></g></g><g transform="translate(0 0)"><g><rect x="25" y="46" width="30" height="20" rx="8" fill="#14161a"/><rect x="65" y="46" width="30" height="20" rx="8" fill="#14161a"/><path d="M55 52h10" stroke="#14161a" stroke-width="3.4" stroke-linecap="round"/><path d="M31 51l9 0M71 51l9 0" stroke="#fff" stroke-opacity=".45" stroke-width="2.4" stroke-linecap="round"/></g><path transform="translate(100 24) scale(0.9)" d="M0 -8C1 -3 3 -1 8 0 3 1 1 3 0 8-1 3-3 1-8 0-3-1-1-3 0-8Z" fill="#f4b73f"/><path transform="translate(16 34) scale(0.6)" d="M0 -8C1 -3 3 -1 8 0 3 1 1 3 0 8-1 3-3 1-8 0-3-1-1-3 0-8Z" fill="#f4b73f"/></g></g><rect x="79.4" y="212" width="81.2" height="32" rx="16" fill="#fff"/><rect x="79.4" y="212" width="81.2" height="32" rx="16" fill="none" stroke="#D18A3C" stroke-width="2.4"/><text x="120" y="233.5" font-family="Inter,Segoe UI,system-ui,sans-serif" font-weight="800" font-size="16" fill="#20232a" text-anchor="middle">Keren!</text></svg>