<svg xmlns="http://www.w3.org/2000/svg" viewBox="0 0 240 262" width="240" height="262"><defs><filter id="sh" x="-10%" y="-10%" width="120%" height="130%"><feDropShadow dx="0" dy="3" stdDeviation="4" flood-color="#000" flood-opacity=".16"/></filter></defs><g filter="url(#sh)"><circle cx="120" cy="116" r="106" fill="#fff"/></g><circle cx="120" cy="116" r="98" fill="#e1eff0"/><circle cx="120" cy="116" r="98" fill="none" stroke="#3F8F91" stroke-opacity=".22" stroke-width="1.5"/><g transform="translate(34 24) scale(1.43)"><g transform="rotate(4 60 70)"><g><path d="M39 48C34 26 48 10 67 13c10 2 16 7 22 16 8-18 25-22 39-13 13 8 16 25 9 40 9 13 10 31 4 47-8 23-28 38-53 38-26 0-48-17-54-40-5-18-2-38 5-53Z" fill="#3F8F91" transform="scale(0.75)"/><path d="M57 25c-17-12-35-5-40 10 11-2 21 1 30 8 2-7 5-12 10-18Z" fill="#3F8F91" transform="scale(0.75)"/><path d="M112 20c12-12 30-8 36 5-10-1-19 3-26 10-3-6-6-10-10-15Z" fill="#3F8F91" transform="scale(0.75)"/><ellipse cx="42" cy="30" rx="16" ry="9" fill="#fff" opacity=".13" transform="rotate(-25 42 30)"/></g><g transform="translate(0 -5)"><ellipse cx="42" cy="56" rx="11" ry="14" fill="#fff"/><circle cx="43" cy="58" r="6" fill="#202127"/><circle cx="45" cy="55" r="2" fill="#fff"/><ellipse cx="78" cy="56" rx="11" ry="14" fill="#fff"/><circle cx="77" cy="58" r="6" fill="#202127"/><circle cx="75" cy="55" r="2" fill="#fff"/><path d="M34 35 Q42 26 50 35" fill="none" stroke="#202127" stroke-width="3.6" stroke-linecap="round"/><path d="M70 35 Q78 26 86 35" fill="none" stroke="#202127" stroke-width="3.6" stroke-linecap="round"/><path d="M45 77 Q60 83 75 77 Q73 96 60 96 Q47 96 45 77 Z" fill="#3a1d27"/><ellipse cx="60" cy="92" rx="6.5" ry="3.6" fill="#ef8d9b"/><ellipse cx="31" cy="72" rx="7" ry="4.2" fill="#ff9aa8" opacity="0.35"/><ellipse cx="89" cy="72" rx="7" ry="4.2" fill="#ff9aa8" opacity="0.35"/></g></g><g transform="translate(0 0)"><g transform="translate(98 14) scale(0.9)"><path d="M0 -20V-25M-14 -14l-4 -4M14 -14l4 -4M-19 -2H-24M19 -2H24" stroke="#f4b73f" stroke-width="2.6" stroke-linecap="round"/><path d="M0 -17a11 11 0 0 1 7 19.5c-1.6 1.4-2 3-2 4.5h-10c0-1.5-.4-3.100-2-4.500A11 11 0 0 1 0 -17Z" fill="#f4b73f" stroke="#202127" stroke-opacity=".25" stroke-width="1.5"/><path d="M-4 10h8M-3 13.5h6" stroke="#8a8f99" stroke-width="2.4" stroke-linecap="round"/></g><path transform="translate(18 28) scale(0.8)" d="M0 -8C1 -3 3 -1 8 0 3 1 1 3 0 8-1 3-3 1-8 0-3-1-1-3 0-8Z" fill="#f4b73f"/></g></g><rect x="88.6" y="212" width="62.8" height="32" rx="16" fill="#fff"/><rect x="88.6" y="212" width="62.8" height="32" rx="16" fill="none" stroke="#3F8F91" stroke-width="2.4"/><text x="120" y="233.5" font-family="Inter,Segoe UI,system-ui,sans-serif" font-weight="800" font-size="16" fill="#20232a" text-anchor="middle">Aha!</text></svg>