<svg xmlns="http://www.w3.org/2000/svg" viewBox="0 0 240 262" width="240" height="262"><defs><filter id="sh" x="-10%" y="-10%" width="120%" height="130%"><feDropShadow dx="0" dy="3" stdDeviation="4" flood-color="#000" flood-opacity=".16"/></filter></defs><g filter="url(#sh)"><circle cx="120" cy="116" r="106" fill="#fff"/></g><circle cx="120" cy="116" r="98" fill="#ececef"/><circle cx="120" cy="116" r="98" fill="none" stroke="#1d2026" stroke-opacity=".22" stroke-width="1.5"/><g transform="translate(34 24) scale(1.43)"><g transform="rotate(-7 60 70)"><g><path d="M24 47c0-22 16-37 36-39 23-2 42 12 45 35 4 28-10 56-38 64-25 7-46-6-49-31-1-10 1-20 6-29Z" fill="#1d2026" transform="scale(1)"/><path d="M29 38C15 34 11 21 18 11c9 8 20 10 32 8-8 5-15 11-21 19Z" fill="#1d2026" transform="scale(1)"/><ellipse cx="42" cy="30" rx="16" ry="9" fill="#fff" opacity=".13" transform="rotate(-25 42 30)"/></g><g transform="translate(0 0)"><ellipse cx="42" cy="56" rx="9.5" ry="12" fill="#fff"/><circle cx="47" cy="57" r="4.6" fill="#1d2026"/><ellipse cx="78" cy="56" rx="9.5" ry="12" fill="#fff"/><circle cx="83" cy="57" r="4.6" fill="#1d2026"/><path d="M51 82 H69" fill="none" stroke="#ffffff" stroke-width="4.6" stroke-linecap="round" stroke-linejoin="round"/></g></g><g transform="translate(0 0)"><g><path d="M0 0 h26 a9 9 0 0 1 0 18 h-12 l-6 6 v-6 h-8 a9 9 0 0 1 0 -18Z" transform="translate(83 4)" fill="#fff" stroke="#202127" stroke-opacity=".25" stroke-width="1.6"/></g><circle cx="88" cy="14" r="2.6" fill="#8a8f99"/><circle cx="96" cy="14" r="2.6" fill="#8a8f99"/><circle cx="104" cy="14" r="2.6" fill="#8a8f99"/><path transform="translate(18 42) scale(0.7)" d="M0 -8C5 -1 6 3 6 5a6 6 0 0 1-12 0c0-2 1-6 6-13Z" fill="#7db9ea"/><path transform="translate(18 42) scale(0.7)" d="M-3 3a3 3 0 0 0 2 3" stroke="#fff" stroke-width="1.5" fill="none" stroke-linecap="round" opacity=".8"/></g></g><rect x="79.4" y="212" width="81.2" height="32" rx="16" fill="#fff"/><rect x="79.4" y="212" width="81.2" height="32" rx="16" fill="none" stroke="#1d2026" stroke-width="2.4"/><text x="120" y="233.5" font-family="Inter,Segoe UI,system-ui,sans-serif" font-weight="800" font-size="16" fill="#20232a" text-anchor="middle">Hmm...</text></svg>