<svg xmlns="http://www.w3.org/2000/svg" viewBox="0 0 240 262" width="240" height="262"><defs><filter id="sh" x="-10%" y="-10%" width="120%" height="130%"><feDropShadow dx="0" dy="3" stdDeviation="4" flood-color="#000" flood-opacity=".16"/></filter></defs><g filter="url(#sh)"><circle cx="120" cy="116" r="106" fill="#fff"/></g><circle cx="120" cy="116" r="98" fill="#f6e5e6"/><circle cx="120" cy="116" r="98" fill="none" stroke="#C45B62" stroke-opacity=".22" stroke-width="1.5"/><g transform="translate(34 24) scale(1.43)"><g transform="rotate(-4 60 70)"><g><path d="M27 57 42 28l28 7 20-18 24 18 23-4 8 31c7 28-4 57-29 70-25 13-60 8-76-13-13-17-17-42-13-62Z" fill="#C45B62" transform="scale(0.75)"/><path d="m39 44-22-4c2-15 12-24 27-25l7 17-12 12Z" fill="#C45B62" transform="scale(0.75)"/><path d="m118 36 18-18c10 7 14 18 11 31l-22 7-7-20Z" fill="#C45B62" transform="scale(0.75)"/><ellipse cx="42" cy="30" rx="16" ry="9" fill="#fff" opacity=".13" transform="rotate(-25 42 30)"/></g><g transform="translate(0 -3)"><ellipse cx="42" cy="56" rx="11" ry="15" fill="#fff"/><circle cx="42" cy="56" r="3.2" fill="#202127"/><ellipse cx="78" cy="56" rx="11" ry="15" fill="#fff"/><circle cx="78" cy="56" r="3.2" fill="#202127"/><path d="M34 35 Q42 26 50 35" fill="none" stroke="#202127" stroke-width="3.6" stroke-linecap="round"/><path d="M70 35 Q78 26 86 35" fill="none" stroke="#202127" stroke-width="3.6" stroke-linecap="round"/><path d="M51 82 H69" fill="none" stroke="#202127" stroke-width="4.6" stroke-linecap="round" stroke-linejoin="round"/></g></g><g transform="translate(0 0)"><text x="98" y="28" font-family="Inter,Segoe UI,system-ui,sans-serif" font-weight="800" font-size="20" fill="#e5484d" text-anchor="middle" transform="rotate(12 98 28)">?</text><text x="112" y="52" font-family="Inter,Segoe UI,system-ui,sans-serif" font-weight="800" font-size="22" fill="#e5484d" text-anchor="middle" transform="rotate(14 112 52)">!</text><path transform="translate(14 40) scale(0.7)" d="M0 -8C5 -1 6 3 6 5a6 6 0 0 1-12 0c0-2 1-6 6-13Z" fill="#7db9ea"/><path transform="translate(14 40) scale(0.7)" d="M-3 3a3 3 0 0 0 2 3" stroke="#fff" stroke-width="1.5" fill="none" stroke-linecap="round" opacity=".8"/></g></g><rect x="70.2" y="212" width="99.6" height="32" rx="16" fill="#fff"/><rect x="70.2" y="212" width="99.6" height="32" rx="16" fill="none" stroke="#C45B62" stroke-width="2.4"/><text x="120" y="233.5" font-family="Inter,Segoe UI,system-ui,sans-serif" font-weight="800" font-size="16" fill="#20232a" text-anchor="middle">Serius?!</text></svg>