<svg xmlns="http://www.w3.org/2000/svg" viewBox="0 0 240 262" width="240" height="262"><defs><filter id="sh" x="-10%" y="-10%" width="120%" height="130%"><feDropShadow dx="0" dy="3" stdDeviation="4" flood-color="#000" flood-opacity=".16"/></filter></defs><g filter="url(#sh)"><circle cx="120" cy="116" r="106" fill="#fff"/></g><circle cx="120" cy="116" r="98" fill="#ebe7f3"/><circle cx="120" cy="116" r="98" fill="none" stroke="#7C6AA6" stroke-opacity=".22" stroke-width="1.5"/><g transform="translate(34 24) scale(1.43)"><g transform="rotate(-3 60 70)"><g><path d="M34 72c-4-29 11-53 39-60 25-7 55 4 65 29 7 17 4 39-4 56-8 17-22 30-40 34-24 5-47-4-56-23-5-10-3-23-4-36Z" fill="#7C6AA6" transform="scale(0.75)"/><path d="M37 53C18 49 11 37 17 22c13 7 26 6 40 1-8 10-13 19-20 30Z" fill="#7C6AA6" transform="scale(0.75)"/><path d="M118 43c16-11 28-7 32 5-10 0-18 5-25 14-2-7-4-13-7-19Z" fill="#7C6AA6" transform="scale(0.75)"/><ellipse cx="42" cy="30" rx="16" ry="9" fill="#fff" opacity=".13" transform="rotate(-25 42 30)"/></g><g transform="translate(0 0)"><ellipse cx="42" cy="56" rx="9.5" ry="12" fill="#fff"/><circle cx="42" cy="51" r="4.6" fill="#202127"/><ellipse cx="78" cy="56" rx="9.5" ry="12" fill="#fff"/><circle cx="78" cy="51" r="4.6" fill="#202127"/><path d="M33 39 H51" fill="none" stroke="#202127" stroke-width="3.6" stroke-linecap="round"/><path d="M69 39 H87" fill="none" stroke="#202127" stroke-width="3.6" stroke-linecap="round"/><path d="M46.5 80 q4.5 -6 9 0 t9 0 t9 0" transform="translate(-4.5 3)" fill="none" stroke="#202127" stroke-width="4.6" stroke-linecap="round" stroke-linejoin="round"/></g></g><g transform="translate(0 0)"><g transform="translate(96 14)"><path d="M-16 8a8 8 0 0 1 1-16 11 11 0 0 1 21-3 9 9 0 0 1 11 9 7 7 0 0 1-3 10Z" fill="#9aa1ad"/></g><path d="M87 28 l-2 6M96 28 l-2 6M105 28 l-2 6" stroke="#7db9ea" stroke-width="2.4" stroke-linecap="round"/><path transform="translate(16 44) scale(0.7)" d="M0 -8C5 -1 6 3 6 5a6 6 0 0 1-12 0c0-2 1-6 6-13Z" fill="#7db9ea"/><path transform="translate(16 44) scale(0.7)" d="M-3 3a3 3 0 0 0 2 3" stroke="#fff" stroke-width="1.5" fill="none" stroke-linecap="round" opacity=".8"/></g></g><rect x="84" y="212" width="72" height="32" rx="16" fill="#fff"/><rect x="84" y="212" width="72" height="32" rx="16" fill="none" stroke="#7C6AA6" stroke-width="2.4"/><text x="120" y="233.5" font-family="Inter,Segoe UI,system-ui,sans-serif" font-weight="800" font-size="16" fill="#20232a" text-anchor="middle">Hadeh</text></svg>