<svg xmlns="http://www.w3.org/2000/svg" viewBox="0 0 240 262" width="240" height="262"><defs><filter id="sh" x="-10%" y="-10%" width="120%" height="130%"><feDropShadow dx="0" dy="3" stdDeviation="4" flood-color="#000" flood-opacity=".16"/></filter></defs><g filter="url(#sh)"><circle cx="120" cy="116" r="106" fill="#fff"/></g><circle cx="120" cy="116" r="98" fill="#f8ecdc"/><circle cx="120" cy="116" r="98" fill="none" stroke="#D18A3C" stroke-opacity=".22" stroke-width="1.5"/><g transform="translate(34 24) scale(1.43)"><g transform="rotate(0 60 70)"><g><path d="M35 57c-4-27 11-47 36-52 25-5 51 8 58 31 3 10 1 20-2 29 11 14 13 31 6 48-9 22-30 36-55 36-26 0-48-15-55-37-5-16-1-34 12-55Z" fill="#D18A3C" transform="scale(0.75)"/><path d="M39 36C25 23 27 8 40 2c8 11 19 16 33 17-10 5-20 10-34 17Z" fill="#D18A3C" transform="scale(0.75)"/><path d="M104 20c8-15 24-20 35-12-4 11-2 20 4 29-12-5-24-10-39-17Z" fill="#D18A3C" transform="scale(0.75)"/><ellipse cx="42" cy="30" rx="16" ry="9" fill="#fff" opacity=".13" transform="rotate(-25 42 30)"/></g><g transform="translate(0 -6)"><path d="M33 60 Q42 46 51 60" fill="none" stroke="#202127" stroke-width="5" stroke-linecap="round"/><path d="M69 60 Q78 46 87 60" fill="none" stroke="#202127" stroke-width="5" stroke-linecap="round"/><path d="M42 75 Q60 83 78 75 Q76 102 60 102 Q44 102 42 75 Z" fill="#3a1d27"/><ellipse cx="60" cy="97" rx="8" ry="4.5" fill="#ef8d9b"/><ellipse cx="31" cy="72" rx="7" ry="4.2" fill="#ff9aa8" opacity="0.35"/><ellipse cx="89" cy="72" rx="7" ry="4.2" fill="#ff9aa8" opacity="0.35"/></g></g><g transform="translate(0 0)"><g transform="translate(14 50) rotate(-25)"><rect x="-9" y="-3" width="18" height="14" rx="6" fill="#D18A3C" stroke="#ffffff" stroke-opacity=".9" stroke-width="2.4" stroke-linejoin="round"/><rect x="-9" y="-14" width="5" height="14" rx="2.5" fill="#D18A3C" stroke="#ffffff" stroke-opacity=".9" stroke-width="2.4" stroke-linejoin="round"/><rect x="-4.5" y="-14" width="5" height="14" rx="2.5" fill="#D18A3C" stroke="#ffffff" stroke-opacity=".9" stroke-width="2.4" stroke-linejoin="round"/><rect x="0" y="-14" width="5" height="14" rx="2.5" fill="#D18A3C" stroke="#ffffff" stroke-opacity=".9" stroke-width="2.4" stroke-linejoin="round"/><rect x="4.5" y="-14" width="5" height="14" rx="2.5" fill="#D18A3C" stroke="#ffffff" stroke-opacity=".9" stroke-width="2.4" stroke-linejoin="round"/></g><g transform="translate(106 50) rotate(25)"><rect x="-9" y="-3" width="18" height="14" rx="6" fill="#D18A3C" stroke="#ffffff" stroke-opacity=".9" stroke-width="2.4" stroke-linejoin="round"/><rect x="-9" y="-14" width="5" height="14" rx="2.5" fill="#D18A3C" stroke="#ffffff" stroke-opacity=".9" stroke-width="2.4" stroke-linejoin="round"/><rect x="-4.5" y="-14" width="5" height="14" rx="2.5" fill="#D18A3C" stroke="#ffffff" stroke-opacity=".9" stroke-width="2.4" stroke-linejoin="round"/><rect x="0" y="-14" width="5" height="14" rx="2.5" fill="#D18A3C" stroke="#ffffff" stroke-opacity=".9" stroke-width="2.4" stroke-linejoin="round"/><rect x="4.5" y="-14" width="5" height="14" rx="2.5" fill="#D18A3C" stroke="#ffffff" stroke-opacity=".9" stroke-width="2.4" stroke-linejoin="round"/></g><circle cx="24" cy="14" r="2.4" fill="#ff6b8b"/><rect x="96.5" y="6.4" width="7" height="3.2" rx="1.2" fill="#f4b73f" transform="rotate(60 100 8)"/><path d="M54 4 q3 -5 6 0 t6 0" transform="rotate(0 60 4)" fill="none" stroke="#7db9ea" stroke-width="2.2" stroke-linecap="round"/><circle cx="112" cy="82" r="2.4" fill="#7ed6a2"/><rect x="4.5" y="78.4" width="7" height="3.2" rx="1.2" fill="#b79bf2" transform="rotate(120 8 80)"/></g></g><rect x="84" y="212" width="72" height="32" rx="16" fill="#fff"/><rect x="84" y="212" width="72" height="32" rx="16" fill="none" stroke="#D18A3C" stroke-width="2.4"/><text x="120" y="233.5" font-family="Inter,Segoe UI,system-ui,sans-serif" font-weight="800" font-size="16" fill="#20232a" text-anchor="middle">Yeay!</text></svg>